<svg id="e724629a-b4fe-4aaa-878a-2a4be5ea201a" data-name="Capa 1" xmlns="http://www.w3.org/2000/svg" width="405.38" height="61.92" viewBox="0 0 405.38 61.92"><defs><style>.a7b2190d-7659-440f-adbc-b99d77833efc{fill:#001c41;}.ad738791-448d-410c-a8dd-1384496ea574{fill:#ff3c00;}</style></defs><path class="a7b2190d-7659-440f-adbc-b99d77833efc" d="M47.22,8.14l-.24,0h-.92c-.6,0-1.2-.06-1.8-.06H29.52a21.88,21.88,0,0,0-14.91,5.66,21.31,21.31,0,0,0-5.5,7.83A21.26,21.26,0,0,0,7.79,32.17,21.37,21.37,0,0,0,19.53,48.5a19.5,19.5,0,0,0,6.75,2q1.61.16,3.21.18c4.3,0,8.61,0,12.91,0,1.4,0,2.79-.06,4.18-.08a3.57,3.57,0,0,1,3.56,3.69,3.5,3.5,0,0,1-2.65,3.31,8.23,8.23,0,0,1-1.92.19c-5.7,0-11.4,0-17.1,0a27.41,27.41,0,0,1-10.74-2.28.5.5,0,0,0-.43,0L7.1,60.63a2.49,2.49,0,0,1-3.5-3.2L6.7,49.5c.18-.47.36-1,.55-1.42a.27.27,0,0,0,0-.33,28.13,28.13,0,0,1-4.37-7,28.65,28.65,0,0,1-2-6.66A28.15,28.15,0,0,1,.51,28a27.07,27.07,0,0,1,1.11-6.44,28,28,0,0,1,4.46-8.84,28.34,28.34,0,0,1,4.64-4.9,28.94,28.94,0,0,1,7.45-4.57,27.91,27.91,0,0,1,6.41-1.87A33.67,33.67,0,0,1,30.07,1H44.35c.92,0,1.84.05,2.75.14a3.5,3.5,0,0,1,3,2.82,3.54,3.54,0,0,1-2.09,4L47.87,8Z"/><path class="ad738791-448d-410c-a8dd-1384496ea574" d="M63,18.84a20.54,20.54,0,0,0-2.5-3.51,21.64,21.64,0,0,0-4.64-3.95,3.61,3.61,0,0,1-1.75-2.55A3.5,3.5,0,0,1,56.13,5a3.43,3.43,0,0,1,3.35.26A27.75,27.75,0,0,1,66.12,11a28.43,28.43,0,0,1-6.64,42.57,3.58,3.58,0,0,1-5.4-2.22,3.64,3.64,0,0,1,1.45-3.72c1-.69,1.95-1.35,2.85-2.12a21,21,0,0,0,6.16-9,20.52,20.52,0,0,0,1.13-5.15,21.15,21.15,0,0,0-1.49-10c-.27-.66-.62-1.29-.93-1.93Z"/><path class="ad738791-448d-410c-a8dd-1384496ea574" d="M51.74,14.9a2.76,2.76,0,0,1,1.51.48,16.48,16.48,0,0,1,7.3,10A15.8,15.8,0,0,1,61,28.78a16.41,16.41,0,0,1-1.12,6.68,16,16,0,0,1-3.46,5.38,18.2,18.2,0,0,1-3.09,2.52,3.07,3.07,0,0,1-4.61-1.51,3,3,0,0,1,1.08-3.48c.47-.35,1-.67,1.43-1a9.85,9.85,0,0,0,3.42-5.64,10.19,10.19,0,0,0-3.07-9.91,11.24,11.24,0,0,0-1.44-1.11,3.39,3.39,0,0,1-1.46-1.81,3,3,0,0,1,.53-2.79A3,3,0,0,1,51.74,14.9Z"/><path class="ad738791-448d-410c-a8dd-1384496ea574" d="M48.83,33a5,5,0,0,1-1.69.58,4.25,4.25,0,1,1,3.69-4.68,4.21,4.21,0,0,1-1,3.23.61.61,0,0,0-.07.1l-.42.4-.37.28Z"/><path class="ad738791-448d-410c-a8dd-1384496ea574" d="M79.54,44.7v-32H94.07a20.34,20.34,0,0,1,9.19,2,15.17,15.17,0,0,1,6.21,5.56,15.47,15.47,0,0,1,2.24,8.45,15.52,15.52,0,0,1-2.24,8.43,15.08,15.08,0,0,1-6.21,5.58,20.35,20.35,0,0,1-9.19,2Zm7.4-6.08h6.77a12,12,0,0,0,5.55-1.21A8.83,8.83,0,0,0,102.92,34a10.39,10.39,0,0,0,1.3-5.26,10.33,10.33,0,0,0-1.3-5.28A8.83,8.83,0,0,0,99.26,20a12,12,0,0,0-5.55-1.22H86.94Z"/><path class="ad738791-448d-410c-a8dd-1384496ea574" d="M114.91,34.69V29h12.94v5.71Z"/><path class="a7b2190d-7659-440f-adbc-b99d77833efc" d="M148.32,45.25A19.11,19.11,0,0,1,141.44,44a16,16,0,0,1-9.14-8.7A16.51,16.51,0,0,1,131,28.7a16.5,16.5,0,0,1,1.3-6.62A15.77,15.77,0,0,1,136,16.82a16.44,16.44,0,0,1,5.5-3.45,20.32,20.32,0,0,1,14.42.23,14.7,14.7,0,0,1,5.65,4.23l-4.76,4.38a11.1,11.1,0,0,0-3.65-2.81,10.35,10.35,0,0,0-4.39-.94,11.17,11.17,0,0,0-4.11.74,9.2,9.2,0,0,0-3.25,2.1,9.54,9.54,0,0,0-2.12,3.24,10.93,10.93,0,0,0-.76,4.16,10.89,10.89,0,0,0,.76,4.16,9.54,9.54,0,0,0,2.12,3.24,9.36,9.36,0,0,0,3.25,2.11,11.17,11.17,0,0,0,4.11.73,10.21,10.21,0,0,0,4.39-.94,10.72,10.72,0,0,0,3.65-2.85l4.76,4.38a14.85,14.85,0,0,1-5.65,4.25A18.68,18.68,0,0,1,148.32,45.25Z"/><path class="a7b2190d-7659-440f-adbc-b99d77833efc" d="M175.28,45.06a14.5,14.5,0,0,1-7-1.64,12.6,12.6,0,0,1-4.8-4.5,12.22,12.22,0,0,1-1.76-6.52,12.13,12.13,0,0,1,6.56-11,15.67,15.67,0,0,1,13.92,0,12.2,12.2,0,0,1,4.8,4.45,12.43,12.43,0,0,1,1.73,6.58,12.09,12.09,0,0,1-6.53,11A14.53,14.53,0,0,1,175.28,45.06Zm0-5.85a6.22,6.22,0,0,0,3.2-.82A5.9,5.9,0,0,0,180.72,36a7.55,7.55,0,0,0,.82-3.64,7.49,7.49,0,0,0-.82-3.65,5.92,5.92,0,0,0-2.24-2.33,6.58,6.58,0,0,0-6.4,0,6,6,0,0,0-2.26,2.33A7.38,7.38,0,0,0,169,32.4a7.45,7.45,0,0,0,.85,3.64,6,6,0,0,0,2.26,2.35A6.25,6.25,0,0,0,175.28,39.21Z"/><path class="a7b2190d-7659-440f-adbc-b99d77833efc" d="M192.37,44.7V20.11h6.81v6.81l-1.28-2.06a9.13,9.13,0,0,1,3.8-3.79,11.69,11.69,0,0,1,5.62-1.33,11.4,11.4,0,0,1,5.23,1.17,8.42,8.42,0,0,1,3.63,3.56,12.57,12.57,0,0,1,1.33,6.15V44.7h-7.13v-13a6.38,6.38,0,0,0-1.3-4.39,4.78,4.78,0,0,0-3.68-1.42,6.46,6.46,0,0,0-3,.71,5,5,0,0,0-2.1,2.17,8.1,8.1,0,0,0-.76,3.75V44.7Z"/><path class="a7b2190d-7659-440f-adbc-b99d77833efc" d="M231.08,45.06a24.19,24.19,0,0,1-6.06-.75,15,15,0,0,1-4.59-1.9l2.38-5.12a15.65,15.65,0,0,0,4,1.72,16.46,16.46,0,0,0,4.54.66,7.56,7.56,0,0,0,3.5-.59,1.83,1.83,0,0,0,1-1.65,1.4,1.4,0,0,0-.8-1.3,6.87,6.87,0,0,0-2.13-.66c-.88-.16-1.85-.31-2.9-.46s-2.11-.36-3.17-.62A11,11,0,0,1,224,33.23a6,6,0,0,1-2.12-2.11,6.46,6.46,0,0,1-.8-3.42,6.63,6.63,0,0,1,1.34-4.12,8.93,8.93,0,0,1,3.91-2.81,16.55,16.55,0,0,1,6.13-1,25.11,25.11,0,0,1,5.11.55,14.07,14.07,0,0,1,4.35,1.6L239.49,27a11.65,11.65,0,0,0-3.59-1.44,16.51,16.51,0,0,0-3.49-.39,7.14,7.14,0,0,0-3.48.64,1.86,1.86,0,0,0-1.09,1.64,1.46,1.46,0,0,0,.8,1.37,7.05,7.05,0,0,0,2.12.73c.88.19,1.85.35,2.9.48a28.29,28.29,0,0,1,3.18.62,11.51,11.51,0,0,1,2.9,1.17,6.05,6.05,0,0,1,2.13,2.05,7,7,0,0,1-.55,7.45,9,9,0,0,1-4,2.77A17.34,17.34,0,0,1,231.08,45.06Z"/><path class="a7b2190d-7659-440f-adbc-b99d77833efc" d="M256.31,45.06a12,12,0,0,1-5.46-1.19,8.38,8.38,0,0,1-3.73-3.63A13.06,13.06,0,0,1,245.8,34V20.11h7.12V33a6.55,6.55,0,0,0,1.31,4.5,4.7,4.7,0,0,0,3.68,1.44,5.85,5.85,0,0,0,2.92-.71,4.88,4.88,0,0,0,2-2.19,8.36,8.36,0,0,0,.73-3.72V20.11h7.13V44.7h-6.76V37.93l1.23,2a8.44,8.44,0,0,1-3.63,3.86A10.76,10.76,0,0,1,256.31,45.06Z"/><path class="ad738791-448d-410c-a8dd-1384496ea574" d="M276.19,44.7V10.79h7.12V44.7Z"/><path class="ad738791-448d-410c-a8dd-1384496ea574" d="M285.87,25.59V20.11h17.05v5.48Zm13,19.47a9.67,9.67,0,0,1-6.76-2.21c-1.62-1.48-2.42-3.68-2.42-6.61V14.67h7.13V36.15a3.28,3.28,0,0,0,.82,2.4,3,3,0,0,0,2.24.85,4.61,4.61,0,0,0,2.88-.92l1.92,5A7.62,7.62,0,0,1,302,44.67,12.82,12.82,0,0,1,298.85,45.06Z"/><path class="ad738791-448d-410c-a8dd-1384496ea574" d="M318.46,45.06a14.47,14.47,0,0,1-7-1.64,12.53,12.53,0,0,1-4.8-4.5,12.22,12.22,0,0,1-1.76-6.52,12.13,12.13,0,0,1,6.56-11,15.65,15.65,0,0,1,13.91,0,12.2,12.2,0,0,1,4.8,4.45,12.34,12.34,0,0,1,1.74,6.58,12.12,12.12,0,0,1-6.54,11A14.49,14.49,0,0,1,318.46,45.06Zm0-5.85a6.25,6.25,0,0,0,3.2-.82A5.9,5.9,0,0,0,323.9,36a7.67,7.67,0,0,0,.82-3.64,7.6,7.6,0,0,0-.82-3.65,5.92,5.92,0,0,0-2.24-2.33,6.58,6.58,0,0,0-6.4,0A6,6,0,0,0,313,28.75a7.27,7.27,0,0,0-.85,3.65A7.34,7.34,0,0,0,313,36a6,6,0,0,0,2.26,2.35A6.22,6.22,0,0,0,318.46,39.21Z"/><path class="ad738791-448d-410c-a8dd-1384496ea574" d="M335.55,44.7V20.11h6.81v7l-1-2a7.88,7.88,0,0,1,3.52-4,11.93,11.93,0,0,1,5.89-1.35v6.59c-.3,0-.58-.06-.82-.07s-.5,0-.78,0a6.71,6.71,0,0,0-4.73,1.67q-1.8,1.67-1.8,5.19V44.7Z"/><path class="ad738791-448d-410c-a8dd-1384496ea574" d="M365.89,45.06a15.92,15.92,0,0,1-7.38-1.64,11.93,11.93,0,0,1-6.64-11,12.5,12.5,0,0,1,1.71-6.55,12.07,12.07,0,0,1,4.68-4.48A13.81,13.81,0,0,1,365,19.74a13.6,13.6,0,0,1,6.51,1.54,11.47,11.47,0,0,1,4.6,4.38,13.25,13.25,0,0,1,1.69,6.83c0,.28,0,.59,0,.94s-.06.68-.09,1h-20V30.26h16.22l-2.74,1.23a6.84,6.84,0,0,0-.78-3.34,5.62,5.62,0,0,0-2.14-2.21,6.21,6.21,0,0,0-3.2-.8,6.32,6.32,0,0,0-3.23.8,5.64,5.64,0,0,0-2.17,2.24,7.14,7.14,0,0,0-.77,3.4v1.1a6.85,6.85,0,0,0,.89,3.54,5.78,5.78,0,0,0,2.51,2.33,8.6,8.6,0,0,0,3.82.8,9.37,9.37,0,0,0,3.45-.59A8.45,8.45,0,0,0,372.25,37L376,41.09A11,11,0,0,1,371.79,44,15.65,15.65,0,0,1,365.89,45.06Z"/><path class="ad738791-448d-410c-a8dd-1384496ea574" d="M389.66,45.06a24.19,24.19,0,0,1-6.06-.75,15,15,0,0,1-4.59-1.9l2.38-5.12a15.65,15.65,0,0,0,4,1.72,16.4,16.4,0,0,0,4.54.66,7.56,7.56,0,0,0,3.5-.59,1.85,1.85,0,0,0,1-1.65,1.4,1.4,0,0,0-.8-1.3,7,7,0,0,0-2.13-.66c-.88-.16-1.85-.31-2.9-.46s-2.11-.36-3.18-.62a11.07,11.07,0,0,1-2.92-1.16,6.06,6.06,0,0,1-2.13-2.11,6.56,6.56,0,0,1-.8-3.42A6.64,6.64,0,0,1,381,23.58a8.93,8.93,0,0,1,3.91-2.81,16.54,16.54,0,0,1,6.12-1,25.13,25.13,0,0,1,5.12.55,13.91,13.91,0,0,1,4.34,1.6L398.07,27a11.65,11.65,0,0,0-3.59-1.44,16.53,16.53,0,0,0-3.5-.39,7.12,7.12,0,0,0-3.47.64,1.87,1.87,0,0,0-1.1,1.64,1.48,1.48,0,0,0,.8,1.37,7.13,7.13,0,0,0,2.13.73c.88.19,1.85.35,2.9.48a28.29,28.29,0,0,1,3.18.62,11.51,11.51,0,0,1,2.9,1.17,5.94,5.94,0,0,1,2.12,2.05,6.31,6.31,0,0,1,.83,3.41,6.41,6.41,0,0,1-1.37,4,9,9,0,0,1-4,2.77A17.34,17.34,0,0,1,389.66,45.06Z"/></svg>